<svg width="40" height="54" viewBox="0 0 40 54" fill="none" xmlns="http://www.w3.org/2000/svg">
<path fill-rule="evenodd" clip-rule="evenodd" d="M9.20163 3C9.97905 1.22629 11.6471 0 13.5794 0H26.0352C27.9675 0 29.6355 1.22629 30.4129 3H31.5711C35.775 3 39.1829 6.69365 39.1829 11.25V45.75C39.1829 50.3064 35.775 54 31.5711 54H8.0435C3.83959 54 0.431641 50.3064 0.431641 45.75V11.25C0.431641 6.69365 3.83959 3 8.0435 3H9.20163ZM8.73548 7.5H8.0435C6.13263 7.5 4.58356 9.17893 4.58356 11.25V45.75C4.58356 47.8211 6.13263 49.5 8.0435 49.5H31.5711C33.4819 49.5 35.031 47.8211 35.031 45.75V11.25C35.031 9.17893 33.4819 7.5 31.5711 7.5H30.8791V9.75C30.8791 10.9926 29.9496 12 28.8031 12H10.8114C9.66492 12 8.73548 10.9926 8.73548 9.75V7.5ZM26.7271 7.5V5.25C26.7271 4.83579 26.4173 4.5 26.0352 4.5H13.5794C13.1972 4.5 12.8874 4.83579 12.8874 5.25V7.5H26.7271ZM8.73549 21.75C8.73549 20.5074 9.66492 19.5 10.8114 19.5H28.8031C29.9496 19.5 30.8791 20.5074 30.8791 21.75C30.8791 22.9926 29.9496 24 28.8031 24H10.8114C9.66492 24 8.73549 22.9926 8.73549 21.75ZM8.73549 30.75C8.73549 29.5074 9.66492 28.5 10.8114 28.5H28.8031C29.9496 28.5 30.8791 29.5074 30.8791 30.75C30.8791 31.9926 29.9496 33 28.8031 33H10.8114C9.66492 33 8.73549 31.9926 8.73549 30.75ZM8.73549 39.75C8.73549 38.5074 9.66492 37.5 10.8114 37.5H20.3364C21.483 37.5 22.4124 38.5074 22.4124 39.75C22.4124 40.9926 21.483 42 20.3364 42H10.8114C9.66492 42 8.73549 40.9926 8.73549 39.75Z" fill="white"/>
</svg>
