<svg width="24" height="28" viewBox="0 0 24 28" fill="none" xmlns="http://www.w3.org/2000/svg">
<g clip-path="url(#clip0_16124_3173)">
<path d="M23.625 2.0783C23.6141 2.05654 23.5887 2.04204 23.5632 2.04929C23.3415 2.14356 23.1197 2.22334 22.8907 2.30673C22.2618 2.5388 21.6075 2.69109 20.9532 2.84338C20.2043 3.01018 19.4409 3.12984 18.6957 3.31476C18.0523 3.47068 17.4125 3.65923 16.7945 3.9058C16.3292 4.0871 15.8712 4.28291 15.4422 4.5331C14.9333 4.8123 14.5225 5.22929 14.1227 5.64266C13.7555 6.02701 13.3847 6.41137 13.0612 6.83561C12.8794 7.07493 12.7268 7.336 12.5813 7.59707C12.8104 6.73409 13.1303 5.86384 13.7155 5.1749C13.7591 5.12051 13.7083 5.05525 13.6465 5.08425C13.4974 5.15677 13.3593 5.25105 13.2175 5.33807C12.1342 6.07053 11.1673 6.98065 10.3348 7.98506C9.92766 8.48182 9.53506 8.98946 9.21153 9.54424C8.83711 10.1933 8.55356 10.8931 8.34999 11.6147C8.32818 11.1868 8.36453 10.7589 8.4227 10.3347C8.4336 10.2586 8.44451 10.186 8.44814 10.1099C8.44814 10.0591 8.46268 9.98661 8.41179 9.9576C8.37544 9.93947 8.33909 9.9576 8.31364 9.98661C8.28093 10.0192 8.25548 10.0555 8.2264 10.0918C8.16823 10.1679 8.11007 10.2477 8.05554 10.3275C7.87379 10.5849 7.7102 10.8569 7.56843 11.1397C7.21945 11.854 6.89956 12.5756 6.57602 13.3008C6.24886 14.026 5.94714 14.7657 5.63088 15.4945C5.32916 16.1835 4.99835 16.8615 4.65665 17.5323C4.47125 17.8913 4.28222 18.2503 4.06048 18.5911C3.96596 18.7362 3.86781 18.8776 3.76603 19.0154C3.78057 18.9864 3.79511 18.961 3.80965 18.932C4.10773 18.3482 4.31131 17.7245 4.4967 17.0972C4.64938 16.6947 4.80205 16.2922 4.97291 15.9006C5.17284 15.4546 5.35097 15.0014 5.52182 14.5445C5.86353 13.6815 6.27794 12.8548 6.75051 12.0534C7.05587 11.5349 7.38303 11.0273 7.68112 10.5015C7.96103 10.0084 8.18278 9.48622 8.43724 8.98221C8.62627 8.6051 8.81893 8.228 8.98252 7.84002C9.02977 7.73124 9.07703 7.61883 9.12065 7.50642C9.13883 7.45203 9.16064 7.39402 9.17155 7.336C9.17155 7.31425 9.17518 7.28886 9.16064 7.26711C9.12792 7.21634 9.06249 7.23447 9.0225 7.26711C8.90618 7.35413 8.79712 7.44478 8.68443 7.53906C8.32091 7.84727 7.94285 8.13735 7.55389 8.41292C8.38635 7.4049 9.27333 6.37511 9.6732 5.10601C9.70228 4.99723 9.78226 4.72528 9.70228 4.63463C9.64775 4.58749 9.58596 4.65276 9.55324 4.69265C9.21517 5.11326 8.85892 5.51937 8.46268 5.8856C8.61536 5.64628 8.76077 5.39972 8.89164 5.1459C9.10975 4.71077 9.32422 4.27203 9.50235 3.81878C9.71319 3.264 9.87314 2.69472 10.0404 2.12906C10.2112 1.51264 10.3639 0.888967 10.5493 0.276173C10.5675 0.218157 10.5856 0.16014 10.5965 0.0984984C10.5965 0.0803684 10.6038 0.0586124 10.5965 0.0404824C10.5856 0.00784833 10.5456 -0.0139077 10.5129 -0.00302968C10.4838 0.00422232 10.4548 0.0223523 10.4293 0.0441084C10.0585 0.392205 9.72773 0.780187 9.37148 1.13916C9.10975 1.40749 8.84438 1.67944 8.59355 1.95864C8.08826 2.53155 7.6375 3.15522 7.28125 3.82966C6.95772 4.44245 6.72143 5.10601 6.57602 5.78407C6.37972 6.66882 6.31429 7.57532 6.1907 8.47094C6.04892 8.08296 5.96531 7.67322 5.94714 7.25623C5.93987 7.11844 5.9326 6.9734 5.92533 6.82473C5.92533 6.75584 5.92533 6.60717 5.81991 6.63981C5.78719 6.65794 5.76901 6.6942 5.75084 6.73046C5.71812 6.79573 5.68904 6.86462 5.65996 6.93352C5.56908 7.14382 5.46729 7.34688 5.37278 7.55356C5.10378 8.13372 4.87112 8.73564 4.75116 9.36294C4.64574 9.87783 4.59121 10.4036 4.59121 10.9257C4.59121 11.6582 4.70391 12.3798 4.70027 13.1159C4.50033 12.7931 4.29676 12.4668 4.21316 12.0897C4.16953 11.912 4.13682 11.7343 4.10773 11.5567C4.10046 11.5059 4.08956 11.4515 4.08229 11.4008C4.07502 11.3645 4.07502 11.3174 4.04594 11.292C3.9805 11.2412 3.93688 11.3282 3.92234 11.3826C3.79874 11.7742 3.73695 12.1876 3.72241 12.601C3.70423 13.0179 3.74422 13.4349 3.7842 13.8519C3.82056 14.229 3.86054 14.6061 3.88599 14.9869C3.86781 15.1247 3.86054 15.2624 3.84964 15.4002C3.80601 16.0783 3.72968 16.7564 3.59881 17.4235C3.51156 17.9602 3.39887 18.4896 3.20984 19.0045C3.10079 19.3707 2.95902 19.7261 2.78089 20.0633C2.75181 20.1104 2.72637 20.1612 2.70092 20.2083C2.34831 20.8356 2.02477 21.4774 1.66853 22.1011C1.45405 22.4673 1.24685 22.8408 1.05418 23.2215C0.912409 23.4681 0.781542 23.7183 0.668851 23.9757C0.570701 24.1933 0.476187 24.4145 0.388942 24.6357C0.356226 24.7299 0.261711 24.9185 0.312603 25.0128C0.388942 25.0817 0.45074 24.991 0.497998 24.8931C0.508903 24.8822 0.519809 24.8714 0.527079 24.8605C0.556161 24.8206 0.581607 24.7807 0.603418 24.7372C0.661581 24.6393 0.719744 24.545 0.774272 24.4507C1.01419 24.0337 1.24685 23.6131 1.48313 23.1925C1.83575 22.5398 2.22107 21.9053 2.61004 21.2707C2.67547 21.1656 2.73727 21.0604 2.8027 20.9516C2.88268 20.8356 2.96265 20.7232 3.04626 20.6072C3.1953 20.4041 3.35525 20.2083 3.52974 20.027C3.74422 19.7913 4.01322 19.5629 4.26405 19.3635C4.62757 19.0697 4.95473 18.7362 5.27463 18.3989C6.01984 17.5903 6.72143 16.7419 7.44847 15.9151C7.93195 15.335 8.45178 14.7766 9.00796 14.2689C9.41874 13.9244 9.84405 13.5945 10.2766 13.279C10.9673 12.7859 11.6944 12.3471 12.3814 11.8467C13.1921 11.2557 13.9845 10.6393 14.7116 9.94672C14.7334 9.92134 14.7588 9.89233 14.7443 9.85607C14.7297 9.80894 14.6716 9.81619 14.6316 9.82707C14.468 9.87058 14.3117 9.93585 14.1517 9.97573C13.9882 10.012 13.8209 10.0446 13.6574 10.0736C13.2102 10.1607 12.7522 10.1969 12.2978 10.2005C12.5559 10.1026 12.8176 10.0084 13.0794 9.92134C13.7301 9.72554 14.388 9.55874 15.0242 9.31943C16.1547 8.93144 17.1435 8.23525 18.0487 7.47016C18.2704 7.28524 18.4958 7.10031 18.6994 6.89363C18.7357 6.85012 18.7902 6.81023 18.7975 6.74859C18.7975 6.67607 18.7103 6.67607 18.6557 6.69057C18.1468 6.79935 17.6343 6.90451 17.1181 6.9589C16.7764 6.99153 16.4201 7.01691 16.0784 6.95527C16.4746 6.83561 16.8745 6.73046 17.2816 6.64706C17.6597 6.57091 18.0414 6.49839 18.4085 6.38599C18.9793 6.21919 19.4918 5.89285 19.9281 5.49399C20.1898 5.2438 20.4333 4.97547 20.6733 4.70352C20.9277 4.41344 21.1567 4.10161 21.4257 3.8224C21.7784 3.45255 22.1637 3.11533 22.5745 2.81438C22.8798 2.57506 23.207 2.372 23.5451 2.17982C23.5705 2.16532 23.596 2.15807 23.6214 2.14356C23.6432 2.12906 23.6505 2.10368 23.6396 2.0783H23.625ZM3.75876 19.3054C3.75876 19.3054 3.75876 19.3054 3.75149 19.3054H3.75512H3.75876ZM4.62757 15.4075C4.90747 14.4937 5.17648 13.5764 5.46729 12.6662C5.73993 11.7343 6.01257 10.8025 6.29975 9.87783C6.61965 8.78278 6.87411 7.66959 7.21218 6.57817C7.4521 5.80945 7.72111 5.04799 8.02283 4.30104C8.29547 3.6266 8.60082 2.96304 9.01523 2.36112C8.67716 3.16247 8.32818 3.95657 8.03373 4.77242C7.75019 5.48674 7.51027 6.21557 7.30306 6.95527C6.79777 8.5906 6.49242 10.2803 6.0053 11.9193C5.7981 12.6445 5.56544 13.3624 5.31462 14.0767C5.13649 14.588 4.92565 15.0993 4.75116 15.6105C4.3622 16.7455 4.00231 17.8913 3.55882 19.0081C3.55155 19.0154 3.54428 19.0226 3.53701 19.0299C3.52247 19.0262 3.50793 19.0299 3.49702 19.0335C3.57336 18.7942 3.64607 18.5512 3.70786 18.3083C4.00231 17.3365 4.32585 16.3756 4.62757 15.4075ZM15.5549 6.49477C15.1332 6.78485 14.7116 7.07493 14.3117 7.39039C13.6465 7.91979 12.9994 8.46731 12.356 9.02209C11.9815 9.35569 11.6435 9.72916 11.2909 10.0881C10.9419 10.4507 10.5893 10.8061 10.2585 11.1832C9.81861 11.6727 9.36785 12.155 8.94616 12.6626C8.57538 13.0977 8.2373 13.5618 7.90287 14.026C7.65567 14.3559 7.40485 14.6859 7.17219 15.0268C6.89592 15.422 6.60874 15.8063 6.33247 16.2016C6.05619 16.6004 5.78355 16.9993 5.51455 17.4018C5.3437 17.6556 5.17284 17.9131 4.97291 18.1487C4.73662 18.4279 4.49306 18.7217 4.22406 18.9791C4.12228 19.0697 4.02413 19.1604 3.92598 19.2547C3.92598 19.2547 3.92598 19.2547 3.92234 19.2547C3.87508 19.2438 3.87508 19.2003 3.88599 19.164C4.07865 18.9501 4.27132 18.7398 4.46035 18.5222C4.68936 18.2575 4.89657 17.9747 5.08923 17.6846C6.11436 16.1907 7.15038 14.7004 8.25184 13.2573C8.66262 12.7242 9.08794 12.1985 9.54597 11.7053C10.3348 10.8714 11.1491 10.0664 11.9634 9.25416C13.0139 8.20987 14.1336 7.23085 15.3514 6.38599C16.322 5.73331 17.3543 5.1749 18.4195 4.69265C17.4234 5.22567 16.4928 5.87472 15.5549 6.49839V6.49477Z" fill="#5534DA"/>
<path d="M16.4491 24.843C16.42 24.9047 16.38 24.9591 16.3364 25.0098C15.8784 25.4848 15.2022 25.7314 14.5624 25.8583C13.9154 25.9925 13.2501 25.8692 12.6176 25.7278C13.2465 25.2093 13.9517 24.6037 14.0935 23.7589C14.2316 22.7472 13.2756 22.0909 12.3559 22.0474C9.28051 21.9459 6.50323 23.6102 3.8968 25.0497C2.90803 25.59 1.80657 26.2826 0.632404 26.0106C0.468821 25.9635 0.301602 25.8583 0.25071 25.6843C0.254345 25.6371 0.232534 25.5827 0.185277 25.561C-0.178242 25.4885 0.0798562 25.9997 0.247075 26.0904C1.69024 26.9135 3.69686 25.3869 4.97281 24.727C6.28875 24.0091 7.64831 23.2839 9.08057 22.8161C10.2693 22.4644 11.6761 22.0728 12.9012 22.4027C13.5264 22.584 14.0135 23.2367 13.8136 23.8894C13.5628 24.6436 12.9121 25.1766 12.305 25.648C11.3489 25.4196 10.3565 25.1694 9.36775 25.3108C8.82247 25.4087 8.19359 25.6009 7.92095 26.123C7.49563 26.9788 8.56074 27.1456 9.17872 27.1274C10.3383 27.0912 11.4434 26.6162 12.3595 25.9163C13.3992 26.1883 14.4279 26.2898 15.4421 25.862C15.9002 25.6516 16.42 25.4196 16.6672 24.9518C16.7435 24.8104 16.5182 24.6944 16.4455 24.8358L16.4491 24.843ZM9.146 26.8845C8.81157 26.8591 8.22267 26.9062 8.0809 26.5328C8.05908 26.0614 8.58255 25.7858 8.97515 25.6661C9.9821 25.3616 11.0436 25.6154 12.0396 25.8474C11.1999 26.4602 10.1929 26.8555 9.146 26.8845Z" fill="#5534DA"/>
</g>
<defs>
<clipPath id="clip0_16124_3173">
<rect width="23.6287" height="27.1334" fill="white"/>
</clipPath>
</defs>
</svg>
