<svg width="53" height="46" viewBox="0 0 53 46" fill="none" xmlns="http://www.w3.org/2000/svg">
<path d="M23.9999 16.4999L6.64894 5.39894C6.13294 5.06881 5.6065 5.03996 5.06963 5.31238C4.53279 5.58479 4.24033 6.01748 4.19225 6.61044C4.14417 6.92131 4.17942 7.22098 4.298 7.50944C4.41658 7.7979 4.6185 8.03027 4.90375 8.20657L22.7836 19.6297C23.1702 19.8636 23.5761 19.9806 24.0014 19.9806C24.4267 19.9806 24.8317 19.8636 25.2162 19.6297L43.0961 8.20657C43.3814 8.03027 43.5873 7.7979 43.7139 7.50944C43.8405 7.22098 43.8717 6.92131 43.8076 6.61044C43.7595 6.01748 43.4671 5.58882 42.9303 5.32444C42.3934 5.06002 41.8669 5.09288 41.3509 5.423L23.9999 16.4999ZM41.4999 45.2498C38.3782 45.2498 35.7228 44.1553 33.5336 41.9663C31.3445 39.7771 30.25 37.1217 30.25 33.9999C30.25 30.8782 31.3445 28.2228 33.5336 26.0336C35.7228 23.8445 38.3782 22.75 41.4999 22.75C44.6217 22.75 47.2771 23.8445 49.4663 26.0336C51.6553 28.2228 52.7499 30.8782 52.7499 33.9999C52.7499 37.1217 51.6553 39.7771 49.4663 41.9663C47.2771 44.1553 44.6217 45.2499 41.4999 45.2499V45.2498ZM35.9231 35.1057H47.0824C47.38 35.1057 47.6377 34.9951 47.8556 34.7739C48.0736 34.5528 48.1826 34.2948 48.1826 33.9999C48.1826 33.7051 48.072 33.4471 47.8509 33.2259C47.6297 33.0048 47.3717 32.8942 47.0768 32.8942H35.9175C35.6199 32.8942 35.3622 33.0048 35.1443 33.2259C34.9263 33.4471 34.8173 33.7051 34.8173 33.9999C34.8173 34.2948 34.9279 34.5528 35.149 34.7739C35.3702 34.9951 35.6282 35.1057 35.9231 35.1057ZM4.76925 37.7499C3.52646 37.7499 2.46256 37.3074 1.57756 36.4223C0.692521 35.5373 0.25 34.4734 0.25 33.2306V4.76925C0.25 3.52646 0.692521 2.46256 1.57756 1.57756C2.46256 0.692523 3.52646 0.25 4.76925 0.25H43.2306C44.4734 0.25 45.5373 0.692523 46.4223 1.57756C47.3074 2.46256 47.7499 3.52646 47.7499 4.76925V19.0673C46.7595 18.6282 45.7435 18.2989 44.7018 18.0794C43.6601 17.8598 42.5929 17.75 41.4999 17.75C36.9732 17.75 33.1332 19.3266 29.9799 22.4799C26.8266 25.6332 25.25 29.4732 25.25 33.9999C25.25 34.6249 25.2885 35.2499 25.3654 35.8749C25.4424 36.4999 25.5737 37.1249 25.7596 37.7499H4.76925Z" fill="#D9D9D9"/>
</svg>
