<svg width="348" height="58" viewBox="0 0 348 58" fill="none" xmlns="http://www.w3.org/2000/svg">
<path d="M29.5679 3.67969L20.3394 57H8.69385L17.959 3.67969H29.5679ZM45.3149 3.67969L43.7036 12.9448H0.893555L2.5415 3.67969H45.3149ZM35.9033 37.8105L35.9766 37.0415C36.2939 34.2095 36.9897 31.5483 38.064 29.0581C39.1382 26.5679 40.5664 24.3828 42.3486 22.5029C44.1309 20.623 46.2305 19.1582 48.6475 18.1084C51.0645 17.0586 53.7744 16.5703 56.7773 16.6436C59.6582 16.6924 62.1484 17.2661 64.248 18.3647C66.3721 19.439 68.1055 20.9038 69.4482 22.7593C70.791 24.6147 71.7432 26.7388 72.3047 29.1313C72.8662 31.5239 73.0249 34.063 72.7808 36.7485L72.7075 37.5542C72.3901 40.3618 71.6821 42.9985 70.5835 45.4644C69.4849 47.9302 68.0444 50.0908 66.2622 51.9463C64.48 53.8018 62.3804 55.2544 59.9634 56.3042C57.5464 57.3296 54.8486 57.8057 51.8701 57.7324C49.0137 57.6836 46.5234 57.1221 44.3994 56.0479C42.2998 54.9736 40.5786 53.521 39.2358 51.6899C37.8931 49.8589 36.9409 47.7593 36.3794 45.3911C35.8179 43.0229 35.6592 40.4961 35.9033 37.8105ZM47.146 37.0415L47.0728 37.8105C46.9995 38.9092 46.9629 40.0933 46.9629 41.3628C46.9873 42.6079 47.1582 43.8042 47.4756 44.9517C47.8174 46.0991 48.3789 47.0391 49.1602 47.7715C49.9658 48.4795 51.0889 48.8579 52.5293 48.9067C54.0918 48.9556 55.4102 48.6382 56.4844 47.9546C57.5586 47.271 58.4375 46.3555 59.1211 45.208C59.8291 44.0361 60.3662 42.7788 60.7324 41.436C61.123 40.0933 61.3794 38.7871 61.5015 37.5176L61.5747 36.7485C61.6724 35.6743 61.709 34.5024 61.6846 33.2329C61.6846 31.939 61.5137 30.7183 61.1719 29.5708C60.8545 28.3989 60.293 27.4468 59.4873 26.7144C58.6816 25.9575 57.5586 25.5547 56.1182 25.5059C54.5557 25.457 53.2251 25.7866 52.1265 26.4946C51.0522 27.2026 50.1733 28.1426 49.4897 29.3145C48.8062 30.4863 48.2812 31.7559 47.915 33.123C47.5488 34.4658 47.2925 35.772 47.146 37.0415ZM99.0747 47.4785L107.205 0.75H118.447L108.669 57H98.6353L99.0747 47.4785ZM76.8823 37.957L76.9556 37.1514C77.2485 34.7344 77.7979 32.293 78.6035 29.8271C79.4336 27.3613 80.5566 25.1152 81.9727 23.0889C83.3887 21.0625 85.1343 19.4512 87.2095 18.2549C89.3091 17.0586 91.7993 16.5093 94.6802 16.6069C97.146 16.7046 99.1602 17.4248 100.723 18.7676C102.31 20.0859 103.542 21.7705 104.421 23.8213C105.3 25.8477 105.898 28.0083 106.216 30.3032C106.558 32.5737 106.692 34.6978 106.619 36.6753L106.472 38.0669C106.082 40.1665 105.435 42.3882 104.531 44.7319C103.652 47.0513 102.493 49.2119 101.052 51.2139C99.6118 53.2158 97.9028 54.8271 95.9253 56.0479C93.9478 57.2686 91.7017 57.8423 89.187 57.769C86.5259 57.6958 84.3408 57.0488 82.6318 55.8281C80.9229 54.6074 79.6045 53.0205 78.6768 51.0674C77.7734 49.0898 77.1875 46.9658 76.9189 44.6953C76.6748 42.4004 76.6626 40.1543 76.8823 37.957ZM88.1616 37.1147L88.0884 37.8838C87.9907 38.8604 87.9297 39.959 87.9053 41.1797C87.8809 42.4004 87.9785 43.5845 88.1982 44.7319C88.4424 45.8794 88.9062 46.8438 89.5898 47.625C90.2979 48.4062 91.3232 48.8335 92.666 48.9067C94.5215 48.9556 96.0718 48.5161 97.3169 47.5884C98.562 46.6606 99.5386 45.4644 100.247 43.9995C100.979 42.5103 101.455 40.9722 101.675 39.3853L102.188 35.5034C102.31 34.4536 102.334 33.355 102.261 32.2075C102.212 31.0601 102.017 29.998 101.675 29.0215C101.333 28.0205 100.771 27.1904 99.9902 26.5312C99.2334 25.8721 98.1714 25.5303 96.8042 25.5059C95.2905 25.457 94.0088 25.7988 92.959 26.5312C91.9092 27.2637 91.0547 28.228 90.3955 29.4243C89.7607 30.6206 89.2725 31.9023 88.9307 33.2695C88.5889 34.6123 88.3325 35.894 88.1616 37.1147ZM117.861 37.8105L117.935 37.0415C118.252 34.2095 118.948 31.5483 120.022 29.0581C121.096 26.5679 122.524 24.3828 124.307 22.5029C126.089 20.623 128.188 19.1582 130.605 18.1084C133.022 17.0586 135.732 16.5703 138.735 16.6436C141.616 16.6924 144.106 17.2661 146.206 18.3647C148.33 19.439 150.063 20.9038 151.406 22.7593C152.749 24.6147 153.701 26.7388 154.263 29.1313C154.824 31.5239 154.983 34.063 154.739 36.7485L154.666 37.5542C154.348 40.3618 153.64 42.9985 152.542 45.4644C151.443 47.9302 150.002 50.0908 148.22 51.9463C146.438 53.8018 144.338 55.2544 141.921 56.3042C139.504 57.3296 136.807 57.8057 133.828 57.7324C130.972 57.6836 128.481 57.1221 126.357 56.0479C124.258 54.9736 122.537 53.521 121.194 51.6899C119.851 49.8589 118.899 47.7593 118.337 45.3911C117.776 43.0229 117.617 40.4961 117.861 37.8105ZM129.104 37.0415L129.031 37.8105C128.958 38.9092 128.921 40.0933 128.921 41.3628C128.945 42.6079 129.116 43.8042 129.434 44.9517C129.775 46.0991 130.337 47.0391 131.118 47.7715C131.924 48.4795 133.047 48.8579 134.487 48.9067C136.05 48.9556 137.368 48.6382 138.442 47.9546C139.517 47.271 140.396 46.3555 141.079 45.208C141.787 44.0361 142.324 42.7788 142.69 41.436C143.081 40.0933 143.337 38.7871 143.459 37.5176L143.533 36.7485C143.63 35.6743 143.667 34.5024 143.643 33.2329C143.643 31.939 143.472 30.7183 143.13 29.5708C142.812 28.3989 142.251 27.4468 141.445 26.7144C140.64 25.9575 139.517 25.5547 138.076 25.5059C136.514 25.457 135.183 25.7866 134.084 26.4946C133.01 27.2026 132.131 28.1426 131.448 29.3145C130.764 30.4863 130.239 31.7559 129.873 33.123C129.507 34.4658 129.25 35.772 129.104 37.0415ZM183.596 29.6074L182.058 38.543H161.257L162.795 29.6074H183.596ZM221.682 3.67969L212.454 57H200.808L210.073 3.67969H221.682ZM237.429 3.67969L235.818 12.9448H193.008L194.656 3.67969H237.429ZM228.018 37.8105L228.091 37.0415C228.408 34.2095 229.104 31.5483 230.178 29.0581C231.252 26.5679 232.681 24.3828 234.463 22.5029C236.245 20.623 238.345 19.1582 240.762 18.1084C243.179 17.0586 245.889 16.5703 248.892 16.6436C251.772 16.6924 254.263 17.2661 256.362 18.3647C258.486 19.439 260.22 20.9038 261.562 22.7593C262.905 24.6147 263.857 26.7388 264.419 29.1313C264.98 31.5239 265.139 34.063 264.895 36.7485L264.822 37.5542C264.504 40.3618 263.796 42.9985 262.698 45.4644C261.599 47.9302 260.159 50.0908 258.376 51.9463C256.594 53.8018 254.495 55.2544 252.078 56.3042C249.661 57.3296 246.963 57.8057 243.984 57.7324C241.128 57.6836 238.638 57.1221 236.514 56.0479C234.414 54.9736 232.693 53.521 231.35 51.6899C230.007 49.8589 229.055 47.7593 228.494 45.3911C227.932 43.0229 227.773 40.4961 228.018 37.8105ZM239.26 37.0415L239.187 37.8105C239.114 38.9092 239.077 40.0933 239.077 41.3628C239.102 42.6079 239.272 43.8042 239.59 44.9517C239.932 46.0991 240.493 47.0391 241.274 47.7715C242.08 48.4795 243.203 48.8579 244.644 48.9067C246.206 48.9556 247.524 48.6382 248.599 47.9546C249.673 47.271 250.552 46.3555 251.235 45.208C251.943 44.0361 252.48 42.7788 252.847 41.436C253.237 40.0933 253.494 38.7871 253.616 37.5176L253.689 36.7485C253.787 35.6743 253.823 34.5024 253.799 33.2329C253.799 31.939 253.628 30.7183 253.286 29.5708C252.969 28.3989 252.407 27.4468 251.602 26.7144C250.796 25.9575 249.673 25.5547 248.232 25.5059C246.67 25.457 245.339 25.7866 244.241 26.4946C243.167 27.2026 242.288 28.1426 241.604 29.3145C240.92 30.4863 240.396 31.7559 240.029 33.123C239.663 34.4658 239.407 35.772 239.26 37.0415ZM291.189 47.4785L299.319 0.75H310.562L300.784 57H290.75L291.189 47.4785ZM268.997 37.957L269.07 37.1514C269.363 34.7344 269.912 32.293 270.718 29.8271C271.548 27.3613 272.671 25.1152 274.087 23.0889C275.503 21.0625 277.249 19.4512 279.324 18.2549C281.423 17.0586 283.914 16.5093 286.794 16.6069C289.26 16.7046 291.274 17.4248 292.837 18.7676C294.424 20.0859 295.657 21.7705 296.536 23.8213C297.415 25.8477 298.013 28.0083 298.33 30.3032C298.672 32.5737 298.806 34.6978 298.733 36.6753L298.586 38.0669C298.196 40.1665 297.549 42.3882 296.646 44.7319C295.767 47.0513 294.607 49.2119 293.167 51.2139C291.726 53.2158 290.017 54.8271 288.04 56.0479C286.062 57.2686 283.816 57.8423 281.301 57.769C278.64 57.6958 276.455 57.0488 274.746 55.8281C273.037 54.6074 271.719 53.0205 270.791 51.0674C269.888 49.0898 269.302 46.9658 269.033 44.6953C268.789 42.4004 268.777 40.1543 268.997 37.957ZM280.276 37.1147L280.203 37.8838C280.105 38.8604 280.044 39.959 280.02 41.1797C279.995 42.4004 280.093 43.5845 280.312 44.7319C280.557 45.8794 281.021 46.8438 281.704 47.625C282.412 48.4062 283.438 48.8335 284.78 48.9067C286.636 48.9556 288.186 48.5161 289.431 47.5884C290.676 46.6606 291.653 45.4644 292.361 43.9995C293.093 42.5103 293.569 40.9722 293.789 39.3853L294.302 35.5034C294.424 34.4536 294.448 33.355 294.375 32.2075C294.326 31.0601 294.131 29.998 293.789 29.0215C293.447 28.0205 292.886 27.1904 292.104 26.5312C291.348 25.8721 290.286 25.5303 288.918 25.5059C287.405 25.457 286.123 25.7988 285.073 26.5312C284.023 27.2637 283.169 28.228 282.51 29.4243C281.875 30.6206 281.387 31.9023 281.045 33.2695C280.703 34.6123 280.447 35.894 280.276 37.1147ZM309.976 37.8105L310.049 37.0415C310.366 34.2095 311.062 31.5483 312.136 29.0581C313.21 26.5679 314.639 24.3828 316.421 22.5029C318.203 20.623 320.303 19.1582 322.72 18.1084C325.137 17.0586 327.847 16.5703 330.85 16.6436C333.73 16.6924 336.221 17.2661 338.32 18.3647C340.444 19.439 342.178 20.9038 343.521 22.7593C344.863 24.6147 345.815 26.7388 346.377 29.1313C346.938 31.5239 347.097 34.063 346.853 36.7485L346.78 37.5542C346.462 40.3618 345.754 42.9985 344.656 45.4644C343.557 47.9302 342.117 50.0908 340.334 51.9463C338.552 53.8018 336.453 55.2544 334.036 56.3042C331.619 57.3296 328.921 57.8057 325.942 57.7324C323.086 57.6836 320.596 57.1221 318.472 56.0479C316.372 54.9736 314.651 53.521 313.308 51.6899C311.965 49.8589 311.013 47.7593 310.452 45.3911C309.89 43.0229 309.731 40.4961 309.976 37.8105ZM321.218 37.0415L321.145 37.8105C321.072 38.9092 321.035 40.0933 321.035 41.3628C321.06 42.6079 321.23 43.8042 321.548 44.9517C321.89 46.0991 322.451 47.0391 323.232 47.7715C324.038 48.4795 325.161 48.8579 326.602 48.9067C328.164 48.9556 329.482 48.6382 330.557 47.9546C331.631 47.271 332.51 46.3555 333.193 45.208C333.901 44.0361 334.438 42.7788 334.805 41.436C335.195 40.0933 335.452 38.7871 335.574 37.5176L335.647 36.7485C335.745 35.6743 335.781 34.5024 335.757 33.2329C335.757 31.939 335.586 30.7183 335.244 29.5708C334.927 28.3989 334.365 27.4468 333.56 26.7144C332.754 25.9575 331.631 25.5547 330.19 25.5059C328.628 25.457 327.297 25.7866 326.199 26.4946C325.125 27.2026 324.246 28.1426 323.562 29.3145C322.878 30.4863 322.354 31.7559 321.987 33.123C321.621 34.4658 321.365 35.772 321.218 37.0415Z" fill="#E37D9B"/>
</svg>
