<svg width="16" height="16" viewBox="0 0 16 16" fill="none" xmlns="http://www.w3.org/2000/svg">
<path d="M5.72586 11.314C4.16048 11.314 2.83485 10.7711 1.74897 9.68519C0.663066 8.59929 0.120117 7.27365 0.120117 5.70828C0.120117 4.1429 0.663066 2.81726 1.74897 1.73136C2.83485 0.645481 4.16048 0.102539 5.72586 0.102539C7.29123 0.102539 8.61687 0.645481 9.70277 1.73136C10.7887 2.81726 11.3316 4.1429 11.3316 5.70828C11.3316 6.36287 11.2217 6.98808 11.002 7.58392C10.7822 8.17975 10.489 8.69802 10.1223 9.13872L15.3967 14.4131C15.5236 14.54 15.5885 14.6995 15.5915 14.8917C15.5944 15.0838 15.5295 15.2463 15.3967 15.3791C15.2639 15.5119 15.1029 15.5783 14.9137 15.5783C14.7245 15.5783 14.5635 15.5119 14.4307 15.3791L9.1563 10.1047C8.69796 10.4831 8.17088 10.7793 7.57505 10.9932C6.97921 11.2071 6.36282 11.314 5.72586 11.314ZM5.72586 9.93906C6.90695 9.93906 7.90735 9.5292 8.72707 8.70949C9.54678 7.88978 9.95664 6.88937 9.95664 5.70828C9.95664 4.52718 9.54678 3.52678 8.72707 2.70707C7.90735 1.88735 6.90695 1.47749 5.72586 1.47749C4.54476 1.47749 3.54436 1.88735 2.72464 2.70707C1.90494 3.52678 1.49509 4.52718 1.49509 5.70828C1.49509 6.88937 1.90494 7.88978 2.72464 8.70949C3.54436 9.5292 4.54476 9.93906 5.72586 9.93906Z" fill="#333236"/>
</svg>
